# This file is brought to you by Roblox Corporation
# Generated by Roblox Studio

mtllib MAC10mag.mtl

g Meshpart1

v 0.0901431 -0.270612 -0.0476042 
v 0.0901431 0.333121 -0.0476042 
v 0.0901431 0.333121 0.0476033 
v 0.0901431 -0.270612 0.0476033 
v 0.100275 -0.291865 -0.0529547 
v 0.100276 -0.291865 0.0529538 
v 0.100276 -0.333121 0.0529538 
v 0.100275 -0.333121 -0.0529547 
v 0.0901431 0.333121 -0.0476042 
v -0.090144 0.333121 -0.0476042 
v -0.090144 0.333121 0.0476033 
v 0.0901431 0.333121 0.0476033 
v -0.090144 0.333121 0.0476033 
v -0.090144 -0.270612 0.0476033 
v 0.0901431 -0.270612 0.0476033 
v 0.0901431 0.333121 0.0476033 
v -0.100276 -0.291865 0.0529547 
v 0.100276 -0.291865 0.0529538 
v -0.100276 -0.333121 0.0529547 
v 0.100276 -0.333121 0.0529538 
v -0.090144 0.333121 -0.0476042 
v -0.090144 -0.270612 -0.0476042 
v -0.090144 -0.270612 0.0476033 
v -0.090144 0.333121 0.0476033 
v -0.100276 -0.291865 -0.0529547 
v -0.100276 -0.291865 0.0529547 
v -0.100276 -0.333121 -0.0529547 
v -0.100276 -0.333121 0.0529547 
v 0.100275 -0.333121 -0.0529547 
v -0.100276 -0.333121 0.0529547 
v -0.100276 -0.333121 -0.0529547 
v 0.100276 -0.333121 0.0529538 
v 0.0901431 0.333121 -0.0476042 
v -0.090144 -0.270612 -0.0476042 
v -0.090144 0.333121 -0.0476042 
v 0.0901431 -0.270612 -0.0476042 
v 0.100275 -0.291865 -0.0529547 
v -0.100276 -0.291865 -0.0529547 
v 0.100275 -0.333121 -0.0529547 
v -0.100276 -0.333121 -0.0529547 

vn 0.968504 0.23622 0 
vn 1 0 0 
vn 1 0 0 
vn 0.968504 0.23622 0 
vn 0.976378 0.204724 0 
vn 0.976378 0.204724 0 
vn 1 0 0 
vn 1 0 0 
vn 0 1 0 
vn 0 1 0 
vn 0 1 0 
vn 0 1 0 
vn 0 0 1 
vn 0 0.141732 0.992126 
vn 0 0.141732 0.992126 
vn 0 0 1 
vn 0 0.102362 0.992126 
vn 0 0.102362 0.992126 
vn 0 0 1 
vn 0 0 1 
vn -1 0 0 
vn -0.968504 0.23622 0 
vn -0.968504 0.23622 0 
vn -1 0 0 
vn -0.976378 0.204724 0 
vn -0.976378 0.204724 0 
vn -1 0 0 
vn -1 0 0 
vn 0 -1 0 
vn 0 -1 0 
vn 0 -1 0 
vn 0 -1 0 
vn 0 0 -1 
vn 0 0.141732 -0.992126 
vn 0 0 -1 
vn 0 0.141732 -0.992126 
vn 0 0.102362 -0.992126 
vn 0 0.102362 -0.992126 
vn 0 0 -1 
vn 0 0 -1 

vt 48.006 -35.0338 
vt 48.006 -34.9584 
vt 47.994 -34.9584 
vt 47.994 -35.0338 
vt 48.0066 -35.0365 
vt 47.9934 -35.0365 
vt 47.9934 -35.0416 
vt 48.0066 -35.0416 
vt 47.9887 -35.006 
vt 48.0113 -35.006 
vt 48.0113 -34.994 
vt 47.9887 -34.994 
vt 47.9887 -34.9584 
vt 47.9887 -35.0338 
vt 48.0113 -35.0338 
vt 48.0113 -34.9584 
vt 47.9875 -35.0365 
vt 48.0125 -35.0365 
vt 47.9875 -35.0416 
vt 48.0125 -35.0416 
vt 47.994 -34.9584 
vt 47.994 -35.0338 
vt 48.006 -35.0338 
vt 48.006 -34.9584 
vt 47.9934 -35.0365 
vt 48.0066 -35.0365 
vt 47.9934 -35.0416 
vt 48.0066 -35.0416 
vt 48.0125 -35.0066 
vt 47.9875 -34.9934 
vt 47.9875 -35.0066 
vt 48.0125 -34.9934 
vt 47.9887 -34.9584 
vt 48.0113 -35.0338 
vt 48.0113 -34.9584 
vt 47.9887 -35.0338 
vt 47.9875 -35.0365 
vt 48.0125 -35.0365 
vt 47.9875 -35.0416 
vt 48.0125 -35.0416 

usemtl Meshpart1Mtl

f 1/1/1 2/2/2 3/3/3 
f 1/1/1 3/3/3 4/4/4 
f 4/4/4 5/5/5 1/1/1 
f 5/5/5 4/4/4 6/6/6 
f 5/5/5 6/6/6 7/7/7 
f 7/7/7 8/8/8 5/5/5 
f 9/9/9 10/10/10 11/11/11 
f 9/9/9 11/11/11 12/12/12 
f 13/13/13 14/14/14 15/15/15 
f 15/15/15 16/16/16 13/13/13 
f 17/17/17 15/15/15 14/14/14 
f 17/17/17 18/18/18 15/15/15 
f 19/19/19 18/18/18 17/17/17 
f 19/19/19 20/20/20 18/18/18 
f 21/21/21 22/22/22 23/23/23 
f 21/21/21 23/23/23 24/24/24 
f 25/25/25 23/23/23 22/22/22 
f 23/23/23 25/25/25 26/26/26 
f 27/27/27 26/26/26 25/25/25 
f 26/26/26 27/27/27 28/28/28 
f 29/29/29 30/30/30 31/31/31 
f 30/30/30 29/29/29 32/32/32 
f 33/33/33 34/34/34 35/35/35 
f 34/34/34 33/33/33 36/36/36 
f 34/34/34 36/36/36 37/37/37 
f 34/34/34 37/37/37 38/38/38 
f 38/38/38 37/37/37 39/39/39 
f 38/38/38 39/39/39 40/40/40 

